<svg width="1440" height="1074" viewBox="0 0 1440 1074" fill="none" xmlns="http://www.w3.org/2000/svg">
<g opacity="0.5">
<g opacity="0.2" clip-path="url(#clip0_1_935)">
<rect width="2016" height="1440" transform="translate(1440) rotate(90)" fill="#030014"/>
<line x1="1440" y1="1009.12" x2="-4.91752e-08" y2="1009.12" stroke="#292929" stroke-width="2.25"/>
<line x1="1440" y1="937.125" x2="-4.91752e-08" y2="937.125" stroke="#292929" stroke-width="2.25"/>
<line x1="1440" y1="865.125" x2="-4.91752e-08" y2="865.125" stroke="#292929" stroke-width="2.25"/>
<line x1="1440" y1="793.125" x2="-4.91752e-08" y2="793.125" stroke="#292929" stroke-width="2.25"/>
<line x1="1440" y1="721.125" x2="-4.91752e-08" y2="721.125" stroke="#292929" stroke-width="2.25"/>
<line x1="1440" y1="649.125" x2="-4.91752e-08" y2="649.125" stroke="#292929" stroke-width="2.25"/>
<line x1="1440" y1="577.125" x2="-4.91752e-08" y2="577.125" stroke="#292929" stroke-width="2.25"/>
<line x1="1440" y1="505.125" x2="-4.91752e-08" y2="505.125" stroke="#292929" stroke-width="2.25"/>
<line x1="1440" y1="433.125" x2="-4.91752e-08" y2="433.125" stroke="#292929" stroke-width="2.25"/>
<line x1="1440" y1="361.125" x2="-4.91752e-08" y2="361.125" stroke="#292929" stroke-width="2.25"/>
<line x1="1440" y1="289.125" x2="-4.91752e-08" y2="289.125" stroke="#292929" stroke-width="2.25"/>
<line x1="1440" y1="217.125" x2="-4.91752e-08" y2="217.125" stroke="#292929" stroke-width="2.25"/>
<line x1="1440" y1="145.125" x2="-4.91752e-08" y2="145.125" stroke="#292929" stroke-width="2.25"/>
<line x1="1440" y1="73.125" x2="-4.91752e-08" y2="73.1249" stroke="#292929" stroke-width="2.25"/>
<line x1="1440" y1="1.125" x2="-2.67521e-05" y2="1.12494" stroke="#292929" stroke-width="2.25"/>
<line x1="-1.125" y1="2016" x2="-1.12485" y2="-6.11532e-05" stroke="#292929" stroke-width="2.25"/>
<line x1="70.8752" y1="2016" x2="70.8754" y2="-6.11532e-05" stroke="#292929" stroke-width="2.25"/>
<line x1="142.875" y1="2016" x2="142.876" y2="-5.35238e-05" stroke="#292929" stroke-width="2.25"/>
<line x1="214.875" y1="2016" x2="214.875" y2="-0.000175594" stroke="#292929" stroke-width="2.25"/>
<line x1="286.875" y1="2016" x2="286.875" y2="-0.000175594" stroke="#292929" stroke-width="2.25"/>
<line x1="358.875" y1="2016" x2="358.875" y2="-0.000167965" stroke="#292929" stroke-width="2.25"/>
<line x1="430.875" y1="2016" x2="430.875" y2="-0.000167965" stroke="#292929" stroke-width="2.25"/>
<line x1="502.875" y1="2016" x2="502.875" y2="-0.000160335" stroke="#292929" stroke-width="2.25"/>
<line x1="574.875" y1="2016" x2="574.875" y2="-0.000160335" stroke="#292929" stroke-width="2.25"/>
<line x1="646.875" y1="2016" x2="646.875" y2="-0.000160335" stroke="#292929" stroke-width="2.25"/>
<line x1="718.875" y1="2016" x2="718.875" y2="9.14347e-05" stroke="#292929" stroke-width="2.25"/>
<line x1="790.875" y1="2016" x2="790.875" y2="9.14347e-05" stroke="#292929" stroke-width="2.25"/>
<line x1="862.875" y1="2016" x2="862.875" y2="9.90641e-05" stroke="#292929" stroke-width="2.25"/>
<line x1="934.875" y1="2016" x2="934.875" y2="9.90641e-05" stroke="#292929" stroke-width="2.25"/>
<line x1="1006.87" y1="2016" x2="1006.87" y2="0.000106694" stroke="#292929" stroke-width="2.25"/>
<line x1="1078.88" y1="2016" x2="1078.88" y2="0.000106694" stroke="#292929" stroke-width="2.25"/>
<line x1="1150.88" y1="2016" x2="1150.88" y2="-1.53768e-05" stroke="#292929" stroke-width="2.25"/>
<line x1="1222.87" y1="2016" x2="1222.88" y2="-7.74742e-06" stroke="#292929" stroke-width="2.25"/>
<line x1="1294.88" y1="2016" x2="1294.88" y2="-7.74742e-06" stroke="#292929" stroke-width="2.25"/>
<line x1="1366.88" y1="2016" x2="1366.88" y2="-1.18021e-07" stroke="#292929" stroke-width="2.25"/>
<line x1="1438.88" y1="2016" x2="1438.88" y2="-1.18021e-07" stroke="#292929" stroke-width="2.25"/>
<rect x="1222.87" y="145.125" width="72" height="72" transform="rotate(90 1222.87 145.125)" fill="url(#paint0_linear_1_935)" stroke="#353535" stroke-width="2.25"/>
<rect x="358.875" y="649.125" width="72" height="72" transform="rotate(90 358.875 649.125)" fill="url(#paint1_linear_1_935)" stroke="#353535" stroke-width="2.25"/>
<rect x="793.125" y="433.125" width="72" height="72" transform="rotate(90 793.125 433.125)" fill="url(#paint2_linear_1_935)" stroke="#353535" stroke-width="2.25"/>
<rect x="502.875" y="721.125" width="72" height="72" transform="rotate(90 502.875 721.125)" fill="url(#paint3_linear_1_935)" stroke="#353535" stroke-width="2.25"/>
<rect x="937.125" y="505.125" width="72" height="72" transform="rotate(90 937.125 505.125)" fill="url(#paint4_linear_1_935)" stroke="#353535" stroke-width="2.25"/>
<rect x="502.875" y="793.125" width="72" height="72" transform="rotate(90 502.875 793.125)" fill="url(#paint5_linear_1_935)" stroke="#353535" stroke-width="2.25"/>
<rect x="937.125" y="577.125" width="72" height="72" transform="rotate(90 937.125 577.125)" fill="url(#paint6_linear_1_935)" stroke="#353535" stroke-width="2.25"/>
<rect x="430.875" y="865.125" width="72" height="72" transform="rotate(90 430.875 865.125)" fill="url(#paint7_linear_1_935)" stroke="#353535" stroke-width="2.25"/>
<rect x="865.125" y="649.125" width="72" height="72" transform="rotate(90 865.125 649.125)" fill="url(#paint8_linear_1_935)" stroke="#353535" stroke-width="2.25"/>
<rect x="1294.88" y="793.125" width="72" height="72" transform="rotate(90 1294.88 793.125)" fill="url(#paint9_linear_1_935)" stroke="#353535" stroke-width="2.25"/>
<rect x="1222.87" y="865.125" width="72" height="72" transform="rotate(90 1222.87 865.125)" fill="url(#paint10_linear_1_935)" stroke="#353535" stroke-width="2.25"/>
<rect x="430.875" y="145.125" width="72" height="72" transform="rotate(90 430.875 145.125)" fill="url(#paint11_linear_1_935)" stroke="#353535" stroke-width="2.25"/>
<rect x="358.875" y="145.125" width="72" height="72" transform="rotate(90 358.875 145.125)" fill="url(#paint12_linear_1_935)" stroke="#353535" stroke-width="2.25"/>
<rect x="430.875" y="217.125" width="72" height="72" transform="rotate(90 430.875 217.125)" fill="url(#paint13_linear_1_935)" stroke="#353535" stroke-width="2.25"/>
<rect x="358.875" y="217.125" width="72" height="72" transform="rotate(90 358.875 217.125)" fill="url(#paint14_linear_1_935)" stroke="#353535" stroke-width="2.25"/>
<rect x="1150.88" y="937.125" width="72" height="72" transform="rotate(90 1150.88 937.125)" fill="url(#paint15_linear_1_935)" stroke="#353535" stroke-width="2.25"/>
<rect x="1078.88" y="1009.12" width="72" height="72" transform="rotate(90 1078.88 1009.12)" fill="url(#paint16_linear_1_935)" stroke="#353535" stroke-width="2.25"/>
<rect x="1150.88" y="145.125" width="72" height="72" transform="rotate(90 1150.88 145.125)" fill="url(#paint17_linear_1_935)" stroke="#353535" stroke-width="2.25"/>
<rect x="286.875" y="649.125" width="72" height="72" transform="rotate(90 286.875 649.125)" fill="url(#paint18_linear_1_935)" stroke="#353535" stroke-width="2.25"/>
<rect x="721.125" y="433.125" width="72" height="72" transform="rotate(90 721.125 433.125)" fill="url(#paint19_linear_1_935)" stroke="#353535" stroke-width="2.25"/>
<rect x="430.875" y="721.125" width="72" height="72" transform="rotate(90 430.875 721.125)" fill="url(#paint20_linear_1_935)" stroke="#353535" stroke-width="2.25"/>
<rect x="865.125" y="505.125" width="72" height="72" transform="rotate(90 865.125 505.125)" fill="url(#paint21_linear_1_935)" stroke="#353535" stroke-width="2.25"/>
<rect x="430.875" y="793.125" width="72" height="72" transform="rotate(90 430.875 793.125)" fill="url(#paint22_linear_1_935)" stroke="#353535" stroke-width="2.25"/>
<rect x="865.125" y="577.125" width="72" height="72" transform="rotate(90 865.125 577.125)" fill="url(#paint23_linear_1_935)" stroke="#353535" stroke-width="2.25"/>
<rect x="358.875" y="865.125" width="72" height="72" transform="rotate(90 358.875 865.125)" fill="url(#paint24_linear_1_935)" stroke="#353535" stroke-width="2.25"/>
<rect x="793.125" y="649.125" width="72" height="72" transform="rotate(90 793.125 649.125)" fill="url(#paint25_linear_1_935)" stroke="#353535" stroke-width="2.25"/>
<rect x="1078.88" y="145.125" width="72" height="72" transform="rotate(90 1078.88 145.125)" fill="url(#paint26_linear_1_935)" stroke="#353535" stroke-width="2.25"/>
<rect x="214.875" y="649.125" width="72" height="72" transform="rotate(90 214.875 649.125)" fill="url(#paint27_linear_1_935)" stroke="#353535" stroke-width="2.25"/>
<rect x="358.875" y="721.125" width="72" height="72" transform="rotate(90 358.875 721.125)" fill="url(#paint28_linear_1_935)" stroke="#353535" stroke-width="2.25"/>
<rect x="793.125" y="505.125" width="72" height="72" transform="rotate(90 793.125 505.125)" fill="url(#paint29_linear_1_935)" stroke="#353535" stroke-width="2.25"/>
<rect x="358.875" y="793.125" width="72" height="72" transform="rotate(90 358.875 793.125)" fill="url(#paint30_linear_1_935)" stroke="#353535" stroke-width="2.25"/>
<rect x="793.125" y="577.125" width="72" height="72" transform="rotate(90 793.125 577.125)" fill="url(#paint31_linear_1_935)" stroke="#353535" stroke-width="2.25"/>
<rect x="286.875" y="865.125" width="72" height="72" transform="rotate(90 286.875 865.125)" fill="url(#paint32_linear_1_935)" stroke="#353535" stroke-width="2.25"/>
<rect x="721.125" y="649.125" width="72" height="72" transform="rotate(90 721.125 649.125)" fill="url(#paint33_linear_1_935)" stroke="#353535" stroke-width="2.25"/>
<rect x="1006.87" y="145.125" width="72" height="72" transform="rotate(90 1006.87 145.125)" fill="url(#paint34_linear_1_935)" stroke="#353535" stroke-width="2.25"/>
<rect x="142.875" y="649.125" width="72" height="72" transform="rotate(90 142.875 649.125)" fill="url(#paint35_linear_1_935)" stroke="#353535" stroke-width="2.25"/>
<rect x="286.875" y="721.125" width="72" height="72" transform="rotate(90 286.875 721.125)" fill="url(#paint36_linear_1_935)" stroke="#353535" stroke-width="2.25"/>
<rect x="721.125" y="505.125" width="72" height="72" transform="rotate(90 721.125 505.125)" fill="url(#paint37_linear_1_935)" stroke="#353535" stroke-width="2.25"/>
<rect x="286.875" y="793.125" width="72" height="72" transform="rotate(90 286.875 793.125)" fill="url(#paint38_linear_1_935)" stroke="#353535" stroke-width="2.25"/>
<rect x="721.125" y="577.125" width="72" height="72" transform="rotate(90 721.125 577.125)" fill="url(#paint39_linear_1_935)" stroke="#353535" stroke-width="2.25"/>
<rect x="214.875" y="865.125" width="72" height="72" transform="rotate(90 214.875 865.125)" fill="url(#paint40_linear_1_935)" stroke="#353535" stroke-width="2.25"/>
<circle cx="796.5" cy="1008" r="1296" transform="rotate(90 796.5 1008)" fill="url(#paint41_radial_1_935)" fill-opacity="0.6"/>
</g>
</g>
<defs>
<linearGradient id="paint0_linear_1_935" x1="1261.12" y1="144" x2="1261.12" y2="218.25" gradientUnits="userSpaceOnUse">
<stop stop-color="#232323"/>
<stop offset="1" stop-color="#242424"/>
</linearGradient>
<linearGradient id="paint1_linear_1_935" x1="397.125" y1="648" x2="397.125" y2="722.25" gradientUnits="userSpaceOnUse">
<stop stop-color="#232323"/>
<stop offset="1" stop-color="#242424"/>
</linearGradient>
<linearGradient id="paint2_linear_1_935" x1="831.375" y1="432" x2="831.375" y2="506.25" gradientUnits="userSpaceOnUse">
<stop stop-color="#232323"/>
<stop offset="1" stop-color="#242424"/>
</linearGradient>
<linearGradient id="paint3_linear_1_935" x1="541.125" y1="720" x2="541.125" y2="794.25" gradientUnits="userSpaceOnUse">
<stop stop-color="#232323"/>
<stop offset="1" stop-color="#242424"/>
</linearGradient>
<linearGradient id="paint4_linear_1_935" x1="975.375" y1="504" x2="975.375" y2="578.25" gradientUnits="userSpaceOnUse">
<stop stop-color="#232323"/>
<stop offset="1" stop-color="#242424"/>
</linearGradient>
<linearGradient id="paint5_linear_1_935" x1="541.125" y1="792" x2="541.125" y2="866.25" gradientUnits="userSpaceOnUse">
<stop stop-color="#232323"/>
<stop offset="1" stop-color="#242424"/>
</linearGradient>
<linearGradient id="paint6_linear_1_935" x1="975.375" y1="576" x2="975.375" y2="650.25" gradientUnits="userSpaceOnUse">
<stop stop-color="#232323"/>
<stop offset="1" stop-color="#242424"/>
</linearGradient>
<linearGradient id="paint7_linear_1_935" x1="469.125" y1="864" x2="469.125" y2="938.25" gradientUnits="userSpaceOnUse">
<stop stop-color="#232323"/>
<stop offset="1" stop-color="#242424"/>
</linearGradient>
<linearGradient id="paint8_linear_1_935" x1="903.375" y1="648" x2="903.375" y2="722.25" gradientUnits="userSpaceOnUse">
<stop stop-color="#232323"/>
<stop offset="1" stop-color="#242424"/>
</linearGradient>
<linearGradient id="paint9_linear_1_935" x1="1333.13" y1="792" x2="1333.13" y2="866.25" gradientUnits="userSpaceOnUse">
<stop stop-color="#232323"/>
<stop offset="1" stop-color="#242424"/>
</linearGradient>
<linearGradient id="paint10_linear_1_935" x1="1261.12" y1="864" x2="1261.12" y2="938.25" gradientUnits="userSpaceOnUse">
<stop stop-color="#232323"/>
<stop offset="1" stop-color="#242424"/>
</linearGradient>
<linearGradient id="paint11_linear_1_935" x1="469.125" y1="144" x2="469.125" y2="218.25" gradientUnits="userSpaceOnUse">
<stop stop-color="#232323"/>
<stop offset="1" stop-color="#242424"/>
</linearGradient>
<linearGradient id="paint12_linear_1_935" x1="397.125" y1="144" x2="397.125" y2="218.25" gradientUnits="userSpaceOnUse">
<stop stop-color="#232323"/>
<stop offset="1" stop-color="#242424"/>
</linearGradient>
<linearGradient id="paint13_linear_1_935" x1="469.125" y1="216" x2="469.125" y2="290.25" gradientUnits="userSpaceOnUse">
<stop stop-color="#232323"/>
<stop offset="1" stop-color="#242424"/>
</linearGradient>
<linearGradient id="paint14_linear_1_935" x1="397.125" y1="216" x2="397.125" y2="290.25" gradientUnits="userSpaceOnUse">
<stop stop-color="#232323"/>
<stop offset="1" stop-color="#242424"/>
</linearGradient>
<linearGradient id="paint15_linear_1_935" x1="1189.13" y1="936" x2="1189.13" y2="1010.25" gradientUnits="userSpaceOnUse">
<stop stop-color="#232323"/>
<stop offset="1" stop-color="#242424"/>
</linearGradient>
<linearGradient id="paint16_linear_1_935" x1="1117.13" y1="1008" x2="1117.13" y2="1082.25" gradientUnits="userSpaceOnUse">
<stop stop-color="#232323"/>
<stop offset="1" stop-color="#242424"/>
</linearGradient>
<linearGradient id="paint17_linear_1_935" x1="1189.13" y1="144" x2="1189.13" y2="218.25" gradientUnits="userSpaceOnUse">
<stop stop-color="#232323"/>
<stop offset="1" stop-color="#242424"/>
</linearGradient>
<linearGradient id="paint18_linear_1_935" x1="325.125" y1="648" x2="325.125" y2="722.25" gradientUnits="userSpaceOnUse">
<stop stop-color="#232323"/>
<stop offset="1" stop-color="#242424"/>
</linearGradient>
<linearGradient id="paint19_linear_1_935" x1="759.375" y1="432" x2="759.375" y2="506.25" gradientUnits="userSpaceOnUse">
<stop stop-color="#232323"/>
<stop offset="1" stop-color="#242424"/>
</linearGradient>
<linearGradient id="paint20_linear_1_935" x1="469.125" y1="720" x2="469.125" y2="794.25" gradientUnits="userSpaceOnUse">
<stop stop-color="#232323"/>
<stop offset="1" stop-color="#242424"/>
</linearGradient>
<linearGradient id="paint21_linear_1_935" x1="903.375" y1="504" x2="903.375" y2="578.25" gradientUnits="userSpaceOnUse">
<stop stop-color="#232323"/>
<stop offset="1" stop-color="#242424"/>
</linearGradient>
<linearGradient id="paint22_linear_1_935" x1="469.125" y1="792" x2="469.125" y2="866.25" gradientUnits="userSpaceOnUse">
<stop stop-color="#232323"/>
<stop offset="1" stop-color="#242424"/>
</linearGradient>
<linearGradient id="paint23_linear_1_935" x1="903.375" y1="576" x2="903.375" y2="650.25" gradientUnits="userSpaceOnUse">
<stop stop-color="#232323"/>
<stop offset="1" stop-color="#242424"/>
</linearGradient>
<linearGradient id="paint24_linear_1_935" x1="397.125" y1="864" x2="397.125" y2="938.25" gradientUnits="userSpaceOnUse">
<stop stop-color="#232323"/>
<stop offset="1" stop-color="#242424"/>
</linearGradient>
<linearGradient id="paint25_linear_1_935" x1="831.375" y1="648" x2="831.375" y2="722.25" gradientUnits="userSpaceOnUse">
<stop stop-color="#232323"/>
<stop offset="1" stop-color="#242424"/>
</linearGradient>
<linearGradient id="paint26_linear_1_935" x1="1117.13" y1="144" x2="1117.13" y2="218.25" gradientUnits="userSpaceOnUse">
<stop stop-color="#232323"/>
<stop offset="1" stop-color="#242424"/>
</linearGradient>
<linearGradient id="paint27_linear_1_935" x1="253.125" y1="648" x2="253.125" y2="722.25" gradientUnits="userSpaceOnUse">
<stop stop-color="#232323"/>
<stop offset="1" stop-color="#242424"/>
</linearGradient>
<linearGradient id="paint28_linear_1_935" x1="397.125" y1="720" x2="397.125" y2="794.25" gradientUnits="userSpaceOnUse">
<stop stop-color="#232323"/>
<stop offset="1" stop-color="#242424"/>
</linearGradient>
<linearGradient id="paint29_linear_1_935" x1="831.375" y1="504" x2="831.375" y2="578.25" gradientUnits="userSpaceOnUse">
<stop stop-color="#232323"/>
<stop offset="1" stop-color="#242424"/>
</linearGradient>
<linearGradient id="paint30_linear_1_935" x1="397.125" y1="792" x2="397.125" y2="866.25" gradientUnits="userSpaceOnUse">
<stop stop-color="#232323"/>
<stop offset="1" stop-color="#242424"/>
</linearGradient>
<linearGradient id="paint31_linear_1_935" x1="831.375" y1="576" x2="831.375" y2="650.25" gradientUnits="userSpaceOnUse">
<stop stop-color="#232323"/>
<stop offset="1" stop-color="#242424"/>
</linearGradient>
<linearGradient id="paint32_linear_1_935" x1="325.125" y1="864" x2="325.125" y2="938.25" gradientUnits="userSpaceOnUse">
<stop stop-color="#232323"/>
<stop offset="1" stop-color="#242424"/>
</linearGradient>
<linearGradient id="paint33_linear_1_935" x1="759.375" y1="648" x2="759.375" y2="722.25" gradientUnits="userSpaceOnUse">
<stop stop-color="#232323"/>
<stop offset="1" stop-color="#242424"/>
</linearGradient>
<linearGradient id="paint34_linear_1_935" x1="1045.12" y1="144" x2="1045.12" y2="218.25" gradientUnits="userSpaceOnUse">
<stop stop-color="#232323"/>
<stop offset="1" stop-color="#242424"/>
</linearGradient>
<linearGradient id="paint35_linear_1_935" x1="181.125" y1="648" x2="181.125" y2="722.25" gradientUnits="userSpaceOnUse">
<stop stop-color="#232323"/>
<stop offset="1" stop-color="#242424"/>
</linearGradient>
<linearGradient id="paint36_linear_1_935" x1="325.125" y1="720" x2="325.125" y2="794.25" gradientUnits="userSpaceOnUse">
<stop stop-color="#232323"/>
<stop offset="1" stop-color="#242424"/>
</linearGradient>
<linearGradient id="paint37_linear_1_935" x1="759.375" y1="504" x2="759.375" y2="578.25" gradientUnits="userSpaceOnUse">
<stop stop-color="#232323"/>
<stop offset="1" stop-color="#242424"/>
</linearGradient>
<linearGradient id="paint38_linear_1_935" x1="325.125" y1="792" x2="325.125" y2="866.25" gradientUnits="userSpaceOnUse">
<stop stop-color="#232323"/>
<stop offset="1" stop-color="#242424"/>
</linearGradient>
<linearGradient id="paint39_linear_1_935" x1="759.375" y1="576" x2="759.375" y2="650.25" gradientUnits="userSpaceOnUse">
<stop stop-color="#232323"/>
<stop offset="1" stop-color="#242424"/>
</linearGradient>
<linearGradient id="paint40_linear_1_935" x1="253.125" y1="864" x2="253.125" y2="938.25" gradientUnits="userSpaceOnUse">
<stop stop-color="#232323"/>
<stop offset="1" stop-color="#242424"/>
</linearGradient>
<radialGradient id="paint41_radial_1_935" cx="0" cy="0" r="1" gradientUnits="userSpaceOnUse" gradientTransform="translate(796.5 1008) rotate(5.25534) scale(1353.79 456.435)">
<stop stop-color="#030014" stop-opacity="0"/>
<stop offset="1" stop-color="#030014"/>
</radialGradient>
<clipPath id="clip0_1_935">
<rect width="2016" height="1440" fill="white" transform="translate(1440) rotate(90)"/>
</clipPath>
</defs>
</svg>
