<svg width="189" height="138" viewBox="0 0 189 138" fill="none" xmlns="http://www.w3.org/2000/svg">
<rect y="97.9536" width="187" height="46" rx="23" transform="rotate(-29.4544 0 97.9536)" fill="#FFEB1C"/>
<path d="M58.5343 101.648L53.4352 104.528C51.6937 105.511 50.2014 105.894 48.9581 105.678C47.7288 105.453 46.705 104.616 45.8868 103.168L42.2165 96.6683C41.3983 95.2193 41.2104 93.9105 41.653 92.7419C42.1016 91.5514 43.1966 90.4645 44.9381 89.481L50.0372 86.6014C50.3019 86.4519 50.5254 86.4084 50.7077 86.4709C50.896 86.5115 51.0649 86.6642 51.2144 86.9289L52.6424 89.4575C52.7919 89.7223 52.8393 89.9527 52.7847 90.1489C52.7362 90.3233 52.5796 90.4852 52.3149 90.6347L48.1144 93.0068C47.6825 93.2507 47.4132 93.5222 47.3065 93.8214C47.192 94.1066 47.233 94.4233 47.4297 94.7716L50.2385 99.7453C50.4352 100.094 50.6852 100.292 50.9886 100.342C51.2841 100.377 51.6478 100.272 52.0797 100.029L56.2802 97.6564C56.5449 97.5069 56.7684 97.4634 56.9507 97.5259C57.139 97.5665 57.3079 97.7192 57.4574 97.9839L58.8618 100.471C59.0113 100.735 59.0587 100.966 59.0041 101.162C58.9556 101.337 58.799 101.498 58.5343 101.648ZM56.2048 100.207L52.7148 102.178C51.4609 102.886 50.5188 103.17 49.8884 103.03C49.258 102.89 48.6871 102.367 48.1757 101.461L44.8713 95.61C44.352 94.6905 44.2021 93.9207 44.4216 93.3007C44.6332 92.6667 45.352 92.0035 46.578 91.3112L50.068 89.3403L49.9499 89.1313L46.46 91.1022C45.1225 91.8575 44.3489 92.57 44.1391 93.2397C43.9293 93.9094 44.1037 94.7389 44.6623 95.7281L47.9668 101.579C48.5096 102.541 49.115 103.108 49.7829 103.283C50.4648 103.449 51.4814 103.15 52.8328 102.387L56.3228 100.416L56.2048 100.207ZM72.6888 88.4453C73.0507 89.0861 73.2836 89.7264 73.3875 90.3659C73.4975 90.9837 73.4149 91.6183 73.1397 92.2699C72.8706 92.8996 72.3701 93.5589 71.6383 94.2478C70.9204 94.9289 69.9136 95.6352 68.6179 96.3669C67.3223 97.0986 66.1905 97.5999 65.2226 97.8709C64.2548 98.1418 63.4247 98.2339 62.7326 98.147C62.0464 98.0384 61.4603 97.7814 60.9742 97.376C60.4941 96.9489 60.0731 96.4149 59.7112 95.774L55.6868 88.6478C55.3249 88.007 55.089 87.3776 54.979 86.7599C54.8751 86.1203 54.9537 85.4787 55.215 84.835C55.4902 84.1835 55.9937 83.5133 56.7255 82.8244C57.4574 82.1355 58.4711 81.4252 59.7668 80.6935C61.0624 79.9618 62.1872 79.4644 63.1412 79.2013C64.109 78.9304 64.936 78.8492 65.6222 78.9579C66.3222 79.0587 66.9123 79.3226 67.3924 79.7498C67.8785 80.1551 68.3025 80.6782 68.6645 81.3191L72.6888 88.4453ZM70.1395 89.251L66.658 83.0861C66.186 82.2502 65.5048 81.7436 64.6147 81.5665C63.7166 81.3754 62.4526 81.7401 60.8225 82.6606C59.1925 83.5811 58.2344 84.4713 57.9482 85.3311C57.6542 86.1771 57.7432 87.018 58.2152 87.8539L61.6967 94.0188C62.1688 94.8547 62.8468 95.3722 63.731 95.5711C64.6072 95.7562 65.8604 95.3884 67.4904 94.4679C69.1204 93.5474 70.0894 92.6602 70.3974 91.8064C70.6975 90.9387 70.6115 90.0869 70.1395 89.251ZM61.9057 93.9008L58.4242 87.7359C57.9836 86.9557 57.9082 86.1714 58.198 85.383C58.4799 84.5807 59.3941 83.7429 60.9405 82.8696C62.487 81.9962 63.6835 81.6421 64.5301 81.8072C65.3688 81.9583 66.0084 82.4239 66.449 83.2041L69.9305 89.369C70.3711 90.1492 70.4435 90.9444 70.1476 91.7546C69.8439 92.5508 68.9188 93.3856 67.3724 94.2589C65.8259 95.1323 64.6403 95.4894 63.8155 95.3304C62.9829 95.1575 62.3463 94.681 61.9057 93.9008ZM64.0301 92.3427C64.1875 92.6214 64.4257 92.7992 64.7449 92.8763C65.0561 92.9394 65.5879 92.7585 66.3402 92.3336C67.0926 91.9088 67.5221 91.5468 67.6288 91.2476C67.7276 90.9346 67.6983 90.6387 67.541 90.3601L64.3664 84.7385C64.2169 84.4738 63.9865 84.3099 63.6753 84.2468C63.3561 84.1698 62.8204 84.3437 62.0681 84.7686C61.3157 85.1934 60.8902 85.5624 60.7913 85.8754C60.6846 86.1746 60.706 86.4565 60.8555 86.7212L64.0301 92.3427ZM81.0191 78.3387C80.7683 78.4803 80.5557 78.5269 80.3813 78.4784C80.2069 78.4298 79.899 78.2913 79.4576 78.0629L74.713 75.6156C74.5507 75.5235 74.4021 75.488 74.267 75.5092C74.1241 75.5164 73.9969 75.5515 73.8854 75.6144L73.5302 75.815C73.349 75.9173 73.2412 76.0517 73.2066 76.2183C73.1781 76.363 73.2268 76.5468 73.3527 76.7697L79.3597 87.4068L79.5686 87.2887L73.5616 76.6517C73.4987 76.5402 73.4645 76.4309 73.4591 76.3237C73.4458 76.2026 73.5089 76.1027 73.6482 76.024L73.9616 75.847C74.0592 75.7919 74.1506 75.7586 74.236 75.7472C74.3354 75.7278 74.4662 75.7642 74.6284 75.8563L79.3495 78.2618C79.8127 78.4963 80.1463 78.6478 80.3504 78.7163C80.5684 78.777 80.8306 78.7208 81.1371 78.5477C81.4436 78.3746 81.6202 78.183 81.6669 77.9728C81.7276 77.7548 81.7771 77.387 81.8154 76.8692L82.1935 71.5842C82.1984 71.3976 82.2278 71.2708 82.2817 71.2036C82.3357 71.1364 82.4114 71.0752 82.5089 71.0202L82.8224 70.8431C82.9617 70.7645 83.0798 70.7621 83.1767 70.836C83.2796 70.8881 83.3625 70.9699 83.4255 71.0814L89.4325 81.7184L89.6414 81.6004L83.6345 70.9634C83.5086 70.7404 83.3693 70.6078 83.2167 70.5653C83.0702 70.5011 82.8994 70.524 82.7044 70.6342L82.3491 70.8348C82.2376 70.8977 82.1419 70.9885 82.0619 71.1072C81.988 71.2041 81.9486 71.3458 81.9437 71.5323L81.5892 76.8591C81.5569 77.3551 81.5165 77.6903 81.468 77.8647C81.4195 78.0391 81.2699 78.1971 81.0191 78.3387ZM82.0727 88.3553L78.9589 90.1137C78.6942 90.2632 78.4677 90.3176 78.2794 90.2769C78.0971 90.2145 77.9312 90.0509 77.7818 89.7862L70.1344 76.2444C69.9849 75.9796 69.9344 75.7601 69.9829 75.5857C70.0375 75.3895 70.1971 75.2167 70.4618 75.0672L73.8264 73.1671C74.0493 73.0412 74.258 72.9877 74.4523 73.0066C74.6607 73.0175 74.8905 73.0991 75.1417 73.2512L78.9462 75.5954C79.0867 75.6815 79.1935 75.7406 79.2668 75.7727C79.354 75.7969 79.4394 75.7855 79.523 75.7383L79.7111 75.632C79.7947 75.5848 79.8416 75.5216 79.852 75.4422C79.8762 75.355 79.8878 75.2291 79.8866 75.0643L79.8229 70.6076C79.8224 70.3139 79.8643 70.079 79.9485 69.9028C80.0467 69.7187 80.2072 69.5637 80.4301 69.4378L83.8156 67.526C84.0803 67.3765 84.3038 67.333 84.4861 67.3954C84.6744 67.4361 84.8433 67.5888 84.9928 67.8535L92.6402 81.3953C92.7897 81.66 92.8371 81.8905 92.7825 82.0867C92.734 82.2611 92.5774 82.423 92.3127 82.5725L89.0944 84.3899C88.8297 84.5394 88.6032 84.5938 88.4149 84.5532C88.2326 84.4908 88.0667 84.3272 87.9173 84.0625L83.7631 76.7064L83.8165 79.6806C83.8249 79.9882 83.77 80.2489 83.6518 80.4626C83.5397 80.6546 83.3513 80.8253 83.0866 80.9748L82.2506 81.4468C81.9859 81.5963 81.7355 81.6734 81.4993 81.6782C81.2692 81.6612 81.0245 81.5696 80.7654 81.4036L78.2461 79.822L82.4002 87.1781C82.5497 87.4428 82.5971 87.6732 82.5426 87.8694C82.494 88.0438 82.3374 88.2058 82.0727 88.3553ZM107.017 74.2686L97.3205 79.7445C97.0558 79.894 96.8293 79.9484 96.641 79.9077C96.4587 79.8453 96.2929 79.6817 96.1434 79.417L88.496 65.8751C88.3465 65.6104 88.296 65.3909 88.3445 65.2165C88.3991 65.0203 88.5587 64.8474 88.8234 64.698L98.5201 59.222C98.7848 59.0726 99.0083 59.029 99.1905 59.0915C99.3789 59.1321 99.5478 59.2848 99.6973 59.5495L101.078 61.9946C101.228 62.2593 101.275 62.4897 101.22 62.6859C101.172 62.8603 101.015 63.0223 100.751 63.1717L94.9827 66.429L95.8915 68.0381L99.9666 65.7368C100.231 65.5873 100.455 65.5438 100.637 65.6063C100.825 65.6469 100.994 65.7996 101.144 66.0643L102.407 68.3004C102.556 68.5651 102.603 68.7955 102.549 68.9917C102.5 69.1661 102.344 69.3281 102.079 69.4775L98.0039 71.7788L99.0189 73.5761L104.787 70.3188C105.051 70.1694 105.275 70.1258 105.457 70.1883C105.645 70.2289 105.814 70.3816 105.964 70.6463L107.345 73.0914C107.494 73.3561 107.542 73.5865 107.487 73.7827C107.439 73.9571 107.282 74.1191 107.017 74.2686ZM104.709 72.816L97.8749 76.6751L94.8183 71.2626L99.9592 68.3594L99.8412 68.1504L94.7003 71.0536L91.7381 65.8082L98.5717 61.9491L98.4537 61.7401L91.4111 65.7173L97.784 77.0021L104.827 73.025L104.709 72.816ZM126.707 57.9401C127.069 58.581 127.302 59.2212 127.405 59.8608C127.515 60.4785 127.433 61.1132 127.158 61.7647C126.888 62.3945 126.388 63.0538 125.656 63.7427C124.938 64.4237 123.931 65.1301 122.636 65.8618C121.34 66.5935 120.208 67.0948 119.241 67.3658C118.273 67.6367 117.443 67.7288 116.75 67.6419C116.064 67.5332 115.478 67.2762 114.992 66.8709C114.512 66.4438 114.091 65.9098 113.729 65.2689L109.705 58.1427C109.343 57.5018 109.107 56.8725 108.997 56.2547C108.893 55.6152 108.972 54.9736 109.233 54.3299C109.508 53.6784 110.012 53.0082 110.743 52.3192C111.475 51.6303 112.489 50.92 113.785 50.1883C115.08 49.4566 116.205 48.9593 117.159 48.6962C118.127 48.4252 118.954 48.3441 119.64 48.4527C120.34 48.5535 120.93 48.8175 121.41 49.2446C121.896 49.65 122.32 50.1731 122.682 50.8139L126.707 57.9401ZM124.157 58.7458L120.676 52.581C120.204 51.745 119.523 51.2385 118.633 51.0613C117.734 50.8702 116.47 51.2349 114.84 52.1555C113.21 53.076 112.252 53.9662 111.966 54.826C111.672 55.6719 111.761 56.5129 112.233 57.3488L115.715 63.5137C116.187 64.3496 116.865 64.867 117.749 65.066C118.625 65.251 119.878 64.8833 121.508 63.9628C123.138 63.0423 124.107 62.1551 124.415 61.3013C124.715 60.4336 124.629 59.5818 124.157 58.7458ZM115.924 63.3957L112.442 57.2308C112.002 56.4506 111.926 55.6663 112.216 54.8779C112.498 54.0756 113.412 53.2377 114.958 52.3644C116.505 51.4911 117.701 51.137 118.548 51.302C119.387 51.4531 120.026 51.9188 120.467 52.699L123.948 58.8639C124.389 59.6441 124.461 60.4392 124.166 61.2494C123.862 62.0457 122.937 62.8805 121.39 63.7538C119.844 64.6271 118.658 64.9843 117.833 64.8253C117.001 64.6524 116.364 64.1758 115.924 63.3957ZM118.048 61.8376C118.205 62.1163 118.444 62.2941 118.763 62.3711C119.074 62.4342 119.606 62.2533 120.358 61.8285C121.11 61.4036 121.54 61.0416 121.647 60.7425C121.745 60.4294 121.716 60.1336 121.559 59.855L118.384 54.2334C118.235 53.9687 118.004 53.8048 117.693 53.7417C117.374 53.6647 116.838 53.8386 116.086 54.2634C115.334 54.6883 114.908 55.0573 114.809 55.3703C114.703 55.6694 114.724 55.9514 114.873 56.2161L118.048 61.8376ZM127.642 45.4771C127.533 45.4468 127.45 45.4295 127.393 45.4252C127.335 45.421 127.279 45.4346 127.223 45.466C127.167 45.4975 127.123 45.5499 127.091 45.6231C127.059 45.6964 127.066 45.7748 127.114 45.8584L133.357 56.9134L133.566 56.7954L127.346 45.7822C127.338 45.7683 127.33 45.7543 127.323 45.7404C127.329 45.7186 127.339 45.7038 127.353 45.6959C127.367 45.688 127.384 45.6871 127.406 45.6932C127.442 45.6914 127.471 45.6935 127.493 45.6996L140.396 50.0993L141.611 52.2518L141.82 52.1338L135.447 40.8489L135.239 40.9669L140.219 49.7859L127.642 45.4771ZM136.112 57.8383L132.977 59.6086C132.712 59.758 132.486 59.8125 132.297 59.7718C132.115 59.7094 131.949 59.5458 131.8 59.2811L124.152 45.7392C124.003 45.4745 123.952 45.255 124.001 45.0806C124.055 44.8844 124.215 44.7115 124.48 44.562L126.653 43.3347C126.918 43.1852 127.164 43.1011 127.393 43.0824C127.635 43.0559 127.906 43.0959 128.205 43.2026L134.879 45.5525L132.365 41.1012C132.216 40.8365 132.165 40.617 132.214 40.4426C132.268 40.2464 132.428 40.0735 132.693 39.924L135.827 38.1538C136.092 38.0043 136.315 37.9608 136.498 38.0232C136.686 38.0639 136.855 38.2166 137.004 38.4813L144.652 52.0231C144.801 52.2878 144.849 52.5183 144.794 52.7145C144.746 52.8889 144.589 53.0508 144.324 53.2003L141.19 54.9705C140.925 55.12 140.698 55.1745 140.51 55.1338C140.328 55.0714 140.162 54.9078 140.013 54.6431L138.561 52.0726L132.544 49.7648L136.439 56.6611C136.588 56.9258 136.636 57.1563 136.581 57.3525C136.533 57.5269 136.376 57.6888 136.112 57.8383Z" fill="#151515"/>
<circle cx="163" cy="31" r="3" fill="#151515"/>
<circle cx="182" cy="5" r="3" fill="#151515"/>
<path d="M182.389 3.59114C185.892 6.45234 188.21 10.7144 188.832 15.4398C189.455 20.1651 188.331 24.9667 185.708 28.7882C183.085 32.6096 179.178 35.138 174.847 35.817C170.515 36.496 166.114 35.2701 162.611 32.4089L163.923 30.4964C166.961 32.9779 170.779 34.0411 174.535 33.4522C178.292 32.8633 181.68 30.6705 183.955 27.3563C186.23 24.042 187.204 19.8778 186.665 15.7796C186.125 11.6814 184.115 7.98502 181.077 5.50358L182.389 3.59114Z" fill="white"/>
</svg>
