<svg width="189" height="138" viewBox="0 0 189 138" fill="none" xmlns="http://www.w3.org/2000/svg">
<rect y="97.9536" width="187" height="46" rx="23" transform="rotate(-29.4544 0 97.9536)" fill="#FFEB1C"/>
<path d="M57.96 95.1644L63.4352 92.0724C63.664 92.3474 63.9737 92.5216 64.3643 92.595C64.7471 92.6545 65.2037 92.6172 65.7343 92.4829C66.257 92.3347 66.8387 92.0797 67.4796 91.7178C68.3155 91.2457 68.9162 90.7963 69.2815 90.3695C69.6608 89.9348 69.7442 89.5293 69.5318 89.1532C69.3902 88.9024 69.1398 88.7682 68.7807 88.7505C68.4137 88.7188 67.8035 88.9073 66.95 89.3157L64.2642 90.6119C61.8232 91.7883 59.8403 92.2466 58.3154 91.9869C56.7906 91.7271 55.6348 90.9006 54.848 89.5074C54.1872 88.3371 53.9708 87.1731 54.1989 86.0152C54.4271 84.8574 55.0301 83.7451 56.0079 82.6784C56.9997 81.6038 58.3037 80.6102 59.9198 79.6975C61.4941 78.8085 63.0132 78.2446 64.477 78.006C65.9469 77.7455 67.2614 77.8117 68.4203 78.2046C69.5933 78.5896 70.5135 79.2918 71.1811 80.3113L65.7059 83.4033C65.5225 83.1761 65.2612 83.0389 64.9221 82.9915C64.5969 82.9363 64.1978 82.9779 63.7247 83.1164C63.2517 83.2549 62.7156 83.4933 62.1166 83.8316C61.3503 84.2644 60.7875 84.6832 60.4283 85.0883C60.0829 85.4854 60.0086 85.8581 60.2053 86.2064C60.339 86.4433 60.5785 86.5745 60.9237 86.6C61.2828 86.6177 61.8473 86.446 62.6172 86.0847L65.6491 84.6206C67.2367 83.8526 68.6064 83.3823 69.7584 83.2095C70.9024 83.0228 71.8674 83.121 72.6534 83.504C73.4533 83.8792 74.1128 84.5265 74.6321 85.446C75.2851 86.6024 75.5142 87.8052 75.3193 89.0545C75.1244 90.3038 74.5447 91.5224 73.5801 92.7102C72.6216 93.8763 71.3204 94.9235 69.6764 95.8519C67.9767 96.8117 66.3562 97.4237 64.8148 97.6878C63.2734 97.9519 61.9045 97.8705 60.708 97.4437C59.5254 97.009 58.6094 96.2492 57.96 95.1644ZM81.6449 85.124L79.2256 80.8399L89.9044 74.8093L92.3237 79.0934L81.6449 85.124ZM83.3087 66.9854L99.0352 78.7762L93.2883 82.0216L80.3699 71.7871L81.7492 71.0082L83.8424 87.3559L78.0955 90.6013L76.1198 71.0452L83.3087 66.9854ZM97.3958 59.0301L104.902 72.3212L101.108 71.266L112.77 64.6807L115.484 69.4873L100.855 77.7483L92.0041 62.0749L97.3958 59.0301ZM126.314 50.5825L128.414 54.3023L116.607 60.9702L114.506 57.2503L126.314 50.5825ZM119.256 57.0214L121.587 63.3948L118.264 62.2943L130.155 55.5793L132.563 59.8424L117.391 68.4104L114.115 59.9246L108.54 52.7369L123.607 44.228L126.015 48.4912L114.228 55.1472L115.002 51.7337L119.256 57.0214Z" fill="#151515"/>
<circle cx="163" cy="31" r="3" fill="#151515"/>
<circle cx="182" cy="5" r="3" fill="#151515"/>
<path d="M182.389 3.59114C185.892 6.45234 188.21 10.7144 188.832 15.4398C189.455 20.1651 188.331 24.9667 185.708 28.7882C183.085 32.6096 179.178 35.138 174.847 35.817C170.515 36.496 166.114 35.2701 162.611 32.4089L163.923 30.4964C166.961 32.9779 170.779 34.0411 174.535 33.4522C178.292 32.8633 181.68 30.6705 183.955 27.3563C186.23 24.042 187.204 19.8778 186.665 15.7796C186.125 11.6814 184.115 7.98502 181.077 5.50358L182.389 3.59114Z" fill="white"/>
</svg>
